mtllib SpiralStairsR1m.mtl

v 0.0000000e+0 0.0000000e+0 1.00000000
v 0.38268300 0.0000000e+0 0.92388000
v 0.70710700 0.0000000e+0 0.70710700
v 0.92388000 0.0000000e+0 0.38268300
v 1.00000000 0.0000000e+0 0.0000000e+0
v 0.0000000e+0 2.00000000 1.00000000
v 0.38268300 2.00000000 0.92388000
v 0.70710700 2.00000000 0.70710700
v 0.92388000 2.00000000 0.38268300
v 1.00000000 2.00000000 0.0000000e+0
vt 0.57729400 0.0000000e+0
vt 0.57729400 0.50420000
vt 0.67565900 0.0000000e+0
vt 0.67565900 0.46218300
vt 0.67565900 0.50420000
vt 0.77402300 0.0000000e+0
vt 0.77402300 0.42016600
vt 0.77402300 0.46218300
vt 0.87238800 0.0000000e+0
vt 0.87238800 0.37815000
vt 0.87238800 0.42016600
vt 0.97075200 0.0000000e+0
vt 0.97075200 0.37815000
vn -0.19508938 0.0000000e+0 -0.98078547
vn -0.44296731 0.0000000e+0 -0.89653777
vn -0.75233905 0.0000000e+0 -0.65877610
vn -0.94717355 0.0000000e+0 -0.32072146
vn -0.98078547 0.0000000e+0 -0.19508938
vn -0.19508938 0.0000000e+0 -0.98078547
vn -0.32072146 0.0000000e+0 -0.94717355
vn -0.65877610 0.0000000e+0 -0.75233905
vn -0.89653777 0.0000000e+0 -0.44296731
vn -0.98078547 0.0000000e+0 -0.19508938

usemtl SpiralStairsR1m
s 1
f 1/12/1 7/10/7 2/9/2
f 2/9/2 8/7/8 3/6/3
f 3/6/3 9/4/9 4/3/4
f 4/3/4 10/2/10 5/1/5
f 6/13/6 7/10/7 1/12/1
f 7/11/7 8/7/8 2/9/2
f 8/8/8 9/4/9 3/6/3
f 9/5/9 10/2/10 4/3/4
