mtllib SpiralStairsR1m.mtl

v 0.0000000e+0 0.0000000e+0 1.00000000
v 0.38268300 0.0000000e+0 0.92388000
v 0.70710700 0.0000000e+0 0.70710700
v 0.92388000 0.0000000e+0 0.38268300
v 1.00000000 0.0000000e+0 0.0000000e+0
v 0.0000000e+0 2.00000000 1.00000000
v 0.38268300 2.00000000 0.92388000
v 0.70710700 2.00000000 0.70710700
v 0.92388000 2.00000000 0.38268300
v 1.00000000 2.00000000 0.0000000e+0
v 1.00000000 0.0000000e+0 1.00000000
v 1.00000000 2.00000000 1.00000000
vt 0.0000000e+0 5.5511151e-17
vt 0.0000000e+0 0.50000000
vt 0.0000000e+0 1.00000000
vt 4.1633363e-17 0.75000000
vt 5.5511151e-17 0.50000000
vt 1.9030000e-2 0.90432925
vt 7.3223250e-2 0.82322325
vt 9.5670750e-2 0.51903000
vt 9.7545032e-2 2.2204460e-16
vt 9.7545032e-2 0.50000000
vt 0.15432925 0.76903000
vt 0.17677675 0.57322325
vt 0.19509036 5.5511151e-17
vt 0.19509036 0.50000000
vt 0.23097000 0.65432925
vt 0.25000000 0.50000000
vt 0.25000000 0.75000000
vt 0.29263569 0.0000000e+0
vt 0.29263569 0.50000000
vt 0.39018073 0.0000000e+0
vt 0.39018073 1.6653345e-16
vt 0.39018073 0.50000000
vt 0.64018073 0.0000000e+0
vt 0.64018073 1.1102230e-16
vt 0.64018073 0.50000000
vt 0.89018073 1.1102230e-16
vt 0.89018073 0.50000000
vn 0.0000000e+0 0.0000000e+0 1.00000000
vn 0.0000000e+0 0.0000000e+0 1.00000000
vn -0.19508938 0.0000000e+0 -0.98078547
vn -0.19508938 0.0000000e+0 -0.98078547
vn 0.0000000e+0 -1.00000000 0.0000000e+0
vn -0.44296731 0.0000000e+0 -0.89653777
vn -0.44296731 0.0000000e+0 -0.89653777
vn -0.44296731 0.0000000e+0 -0.89653777
vn 0.0000000e+0 -1.00000000 0.0000000e+0
vn 0.0000000e+0 -1.00000000 0.0000000e+0
vn -0.75233905 0.0000000e+0 -0.65877610
vn -0.75233905 0.0000000e+0 -0.65877610
vn -0.75233905 0.0000000e+0 -0.65877610
vn 0.0000000e+0 -1.00000000 0.0000000e+0
vn 0.0000000e+0 -1.00000000 0.0000000e+0
vn -0.94717355 0.0000000e+0 -0.32072146
vn -0.94717355 0.0000000e+0 -0.32072146
vn -0.94717355 0.0000000e+0 -0.32072146
vn 0.0000000e+0 -1.00000000 0.0000000e+0
vn 0.0000000e+0 -1.00000000 0.0000000e+0
vn 1.00000000 0.0000000e+0 0.0000000e+0
vn 1.00000000 0.0000000e+0 0.0000000e+0
vn -0.98078547 0.0000000e+0 -0.19508938
vn 0.0000000e+0 -1.00000000 0.0000000e+0
vn 0.0000000e+0 0.0000000e+0 1.00000000
vn -0.19508938 0.0000000e+0 -0.98078547
vn 0.0000000e+0 1.00000000 0.0000000e+0
vn -0.32072146 0.0000000e+0 -0.94717355
vn -0.32072146 0.0000000e+0 -0.94717355
vn -0.32072146 0.0000000e+0 -0.94717355
vn 0.0000000e+0 1.00000000 0.0000000e+0
vn 0.0000000e+0 1.00000000 0.0000000e+0
vn -0.65877610 0.0000000e+0 -0.75233905
vn -0.65877610 0.0000000e+0 -0.75233905
vn -0.65877610 0.0000000e+0 -0.75233905
vn 0.0000000e+0 1.00000000 0.0000000e+0
vn 0.0000000e+0 1.00000000 0.0000000e+0
vn -0.89653777 0.0000000e+0 -0.44296731
vn -0.89653777 0.0000000e+0 -0.44296731
vn -0.89653777 0.0000000e+0 -0.44296731
vn 0.0000000e+0 1.00000000 0.0000000e+0
vn 0.0000000e+0 1.00000000 0.0000000e+0
vn 1.00000000 0.0000000e+0 0.0000000e+0
vn -0.98078547 0.0000000e+0 -0.19508938
vn -0.98078547 0.0000000e+0 -0.19508938
vn 0.0000000e+0 1.00000000 0.0000000e+0
vn 1.00000000 0.0000000e+0 0.0000000e+0
vn 0.0000000e+0 0.0000000e+0 1.00000000
vn 0.0000000e+0 -1.00000000 0.0000000e+0
vn 0.0000000e+0 -1.00000000 0.0000000e+0
vn 0.0000000e+0 -1.00000000 0.0000000e+0
vn 0.0000000e+0 -1.00000000 0.0000000e+0
vn 1.00000000 0.0000000e+0 0.0000000e+0
vn 1.00000000 0.0000000e+0 0.0000000e+0
vn 0.0000000e+0 0.0000000e+0 1.00000000
vn 0.0000000e+0 0.0000000e+0 1.00000000
vn 0.0000000e+0 1.00000000 0.0000000e+0
vn 0.0000000e+0 1.00000000 0.0000000e+0
vn 0.0000000e+0 1.00000000 0.0000000e+0
vn 0.0000000e+0 1.00000000 0.0000000e+0
g unnamed_object2_SpiralStairsR1m
usemtl SpiralStairsR1m
s 1
f 1/20/1 12/25/55 6/22/25
f 11/24/48 12/25/56 1/20/2
s 2
f 2/11/9 11/4/49 1/17/5
f 3/7/14 11/4/50 2/11/10
f 4/6/19 11/4/51 3/7/15
f 5/3/24 11/4/52 4/6/20
f 6/2/27 12/16/57 7/8/31
f 7/8/32 12/16/58 8/12/36
f 8/12/37 12/16/59 9/15/41
f 9/15/42 12/16/60 10/17/46
s 3
f 5/26/21 12/25/53 11/23/47
f 10/27/43 12/25/54 5/26/22
s 4
f 1/21/3 7/19/28 2/18/6
f 2/18/7 8/14/33 3/13/11
f 3/13/12 9/10/38 4/9/16
f 4/9/17 10/5/44 5/1/23
f 6/22/26 7/19/29 1/21/4
f 7/19/30 8/14/34 2/18/8
f 8/14/35 9/10/39 3/13/13
f 9/10/40 10/5/45 4/9/18
o unnamed_object1
#24 vertices, 44 faces
v 0.0000000e+0 1.33333333 0.0000000e+0
v 0.0000000e+0 1.50000000 1.00000000
v 0.0000000e+0 1.50000000 0.0000000e+0
v 0.70710700 1.33333333 0.70710700
v 0.38268300 1.33333333 0.92388000
v 0.0000000e+0 1.16666666 0.0000000e+0
v 0.0000000e+0 1.33333333 1.00000000
v 0.38268300 1.66666666 0.92388000
v 0.0000000e+0 1.66666666 0.0000000e+0
v 0.70710700 1.50000000 0.70710700
v 0.92388000 1.50000000 0.38268300
v 0.70710700 1.83333333 0.70710700
v 0.0000000e+0 1.83333333 0.0000000e+0
v 0.92388000 1.66666666 0.38268300
v 1.00000000 1.66666666 0.0000000e+0
v 0.92388000 2.00000000 0.38268300
v 0.0000000e+0 2.00000000 0.0000000e+0
v 1.00000000 1.83333333 0.0000000e+0
v 1.00000000 2.00000000 0.0000000e+0
v 0.38268300 1.50000000 0.92388000
v 0.0000000e+0 1.16666666 1.00000000
v 0.38268300 1.16666666 0.92388000
v 0.70710700 1.66666666 0.70710700
v 0.92388000 1.83333333 0.38268300
vt 0.0000000e+0 1.7809602e-6
vt 0.0000000e+0 0.11777526
vt 0.0000000e+0 0.15703293
vt 0.0000000e+0 0.19629091
vt 0.0000000e+0 0.23554858
vt 0.0000000e+0 0.27480626
vt 0.0000000e+0 0.39257929
vt 0.0000000e+0 0.50525392
vt 0.0000000e+0 0.61792855
vt 0.0000000e+0 0.82612441
vt 5.5511151e-17 7.8517578e-2
vt 8.3266727e-17 0.31406394
vt 2.2204460e-16 0.35332162
vt 2.7755576e-16 0.31406394
vt 2.3778314e-7 3.9259895e-2
vt 1.0282617e-6 7.8517578e-2
vt 2.2412264e-2 0.50525392
vt 0.20819586 0.61792855
vt 0.27202105 0.39257929
vt 0.27202105 0.65718663
vt 0.27202105 0.71344978
vt 0.27202117 0.61792855
vt 0.27202117 0.69644434
vt 0.29443332 0.31406394
vt 0.29443332 0.35332162
vt 0.29443332 0.39257929
vt 0.29443332 0.43183697
vt 0.29443332 0.47109465
vt 0.29443332 0.50525392
vt 0.29443332 0.54451160
vt 0.29443332 0.58376928
vt 0.29443332 0.61792855
vt 0.29443340 0.15703293
vt 0.29443340 0.19629091
vt 0.29443340 0.23554858
vt 0.29443340 0.27480626
vt 0.29443340 0.31406394
vt 0.29443341 7.8517578e-2
vt 0.29443341 0.11777526
vt 0.29443341 0.15703293
vt 0.29443356 3.9257967e-2
vt 0.29443383 0.0000000e+0
vt 0.29443383 7.8515503e-2
vt 0.29443383 0.29443332
vt 0.38690306 0.69644439
vt 0.38690308 0.65718683
vt 0.38690333 0.61792855
vt 0.38690333 0.61792888
vt 0.38690333 0.65718622
vt 0.38690333 0.69644390
vt 0.40710846 2.2412264e-2
vt 0.40931570 0.39257929
vt 0.40931570 0.43183697
vt 0.40931570 0.47109465
vt 0.40931570 0.50525392
vt 0.40931570 0.54451160
vt 0.40931570 0.58376928
vt 0.50178536 0.61792855
vt 0.50178536 0.65718622
vt 0.50178536 0.69644390
vt 0.51978308 0.0000000e+0
vt 0.51978308 0.27202105
vt 0.51978308 0.29443332
vt 0.51978308 0.33584625
vt 0.61530432 0.27202105
vt 0.63245771 0.0000000e+0
vt 0.72797895 6.3825194e-2
vt 0.72797895 9.5521235e-2
vt 0.72797895 0.54404211
vt 0.79180414 0.0000000e+0
vt 1.00000000 0.20819586
vn 0.0000000e+0 -1.00000000 0.0000000e+0
vn 0.92387975 0.0000000e+0 -0.38268290
vn 0.70710678 0.0000000e+0 -0.70710678
vn 0.92387975 0.0000000e+0 -0.38268290
vn -1.00000000 0.0000000e+0 0.0000000e+0
vn -1.00000000 0.0000000e+0 0.0000000e+0
vn -1.00000000 0.0000000e+0 0.0000000e+0
vn 0.0000000e+0 1.00000000 0.0000000e+0
vn 0.19508938 0.0000000e+0 0.98078547
vn -1.00000000 0.0000000e+0 0.0000000e+0
vn -1.00000000 0.0000000e+0 0.0000000e+0
vn 0.0000000e+0 1.00000000 0.0000000e+0
vn 0.0000000e+0 -1.00000000 0.0000000e+0
vn 0.70710678 0.0000000e+0 -0.70710678
vn 0.70710678 0.0000000e+0 -0.70710678
vn -0.92387975 0.0000000e+0 0.38268290
vn -0.92387975 0.0000000e+0 0.38268290
vn -1.00000000 0.0000000e+0 0.0000000e+0
vn 0.38268290 0.0000000e+0 -0.92387975
vn 0.0000000e+0 -1.00000000 0.0000000e+0
vn 0.70710678 0.0000000e+0 -0.70710678
vn 0.70710678 0.0000000e+0 -0.70710678
vn 0.55556990 0.0000000e+0 0.83146983
vn 0.0000000e+0 -1.00000000 0.0000000e+0
vn 0.92387975 0.0000000e+0 -0.38268290
vn 0.19508938 0.0000000e+0 0.98078547
vn 0.19508938 0.0000000e+0 0.98078547
vn 0.19508938 0.0000000e+0 0.98078547
vn 0.55556990 0.0000000e+0 0.83146983
vn 0.55556990 0.0000000e+0 0.83146983
vn 0.0000000e+0 -1.00000000 0.0000000e+0
vn 0.92387975 0.0000000e+0 -0.38268290
vn -1.00000000 0.0000000e+0 0.0000000e+0
vn -1.00000000 0.0000000e+0 0.0000000e+0
vn 0.19508938 0.0000000e+0 0.98078547
vn 0.19508938 0.0000000e+0 0.98078547
vn 0.19508938 0.0000000e+0 0.98078547
vn -1.00000000 0.0000000e+0 0.0000000e+0
vn -1.00000000 0.0000000e+0 0.0000000e+0
vn -1.00000000 0.0000000e+0 0.0000000e+0
vn 0.0000000e+0 1.00000000 5.8022937e-16
vn -0.92387975 0.0000000e+0 0.38268290
vn -0.92387975 0.0000000e+0 0.38268290
vn 0.55556990 0.0000000e+0 0.83146983
vn 0.0000000e+0 1.00000000 5.8022937e-16
vn 0.0000000e+0 -1.00000000 0.0000000e+0
vn -0.92387975 0.0000000e+0 0.38268290
vn -0.70710678 0.0000000e+0 0.70710678
vn -0.70710678 0.0000000e+0 0.70710678
vn 0.38268290 0.0000000e+0 -0.92387975
vn 0.38268290 0.0000000e+0 -0.92387975
vn 0.0000000e+0 0.0000000e+0 -1.00000000
vn 0.0000000e+0 -1.00000000 0.0000000e+0
vn 0.70710678 0.0000000e+0 -0.70710678
vn 0.83146983 0.0000000e+0 0.55556990
vn 0.83146983 0.0000000e+0 0.55556990
vn 0.55556990 0.0000000e+0 0.83146983
vn 0.55556990 0.0000000e+0 0.83146983
vn 0.55556990 0.0000000e+0 0.83146983
vn 0.0000000e+0 -1.00000000 0.0000000e+0
vn 0.83146983 0.0000000e+0 0.55556990
vn 0.38268290 0.0000000e+0 -0.92387975
vn 0.38268290 0.0000000e+0 -0.92387975
vn 0.0000000e+0 1.00000000 0.0000000e+0
vn -0.70710678 0.0000000e+0 0.70710678
vn -0.70710678 0.0000000e+0 0.70710678
vn 0.83146983 0.0000000e+0 0.55556990
vn 0.0000000e+0 1.00000000 0.0000000e+0
vn -0.70710678 0.0000000e+0 0.70710678
vn -0.38268290 0.0000000e+0 0.92387975
vn -0.38268290 0.0000000e+0 0.92387975
vn 0.0000000e+0 0.0000000e+0 -1.00000000
vn 0.0000000e+0 0.0000000e+0 -1.00000000
vn 0.0000000e+0 0.0000000e+0 -1.00000000
vn 0.0000000e+0 -1.00000000 0.0000000e+0
vn 0.98078547 0.0000000e+0 0.19508938
vn 0.98078547 0.0000000e+0 0.19508938
vn 0.83146983 0.0000000e+0 0.55556990
vn 0.83146983 0.0000000e+0 0.55556990
vn 0.83146983 0.0000000e+0 0.55556990
vn 0.38268290 0.0000000e+0 -0.92387975
vn 0.0000000e+0 -1.00000000 0.0000000e+0
vn 0.98078547 0.0000000e+0 0.19508938
vn 0.0000000e+0 0.0000000e+0 -1.00000000
vn 0.0000000e+0 0.0000000e+0 -1.00000000
vn 0.0000000e+0 1.00000000 0.0000000e+0
vn 0.98078547 0.0000000e+0 0.19508938
vn -0.38268290 0.0000000e+0 0.92387975
vn -0.38268290 0.0000000e+0 0.92387975
vn 0.0000000e+0 1.00000000 0.0000000e+0
vn -0.38268290 0.0000000e+0 0.92387975
vn 0.0000000e+0 0.0000000e+0 -1.00000000
vn 0.0000000e+0 0.0000000e+0 -1.00000000
vn 0.98078547 0.0000000e+0 0.19508938
vn 0.98078547 0.0000000e+0 0.19508938
vn 0.98078547 0.0000000e+0 0.19508938
vn 0.0000000e+0 0.0000000e+0 -1.00000000
vn 0.0000000e+0 0.0000000e+0 -1.00000000
vn 0.0000000e+0 0.0000000e+0 -1.00000000
vn 0.0000000e+0 1.00000000 0.0000000e+0
vn 0.98078547 0.0000000e+0 0.19508938
vn 0.98078547 0.0000000e+0 0.19508938
vn 0.0000000e+0 0.0000000e+0 -1.00000000
vn 0.0000000e+0 1.00000000 0.0000000e+0
vn -0.92387975 0.0000000e+0 0.38268290
vn 0.19508938 0.0000000e+0 0.98078547
vn 0.19508938 0.0000000e+0 0.98078547
vn 0.55556990 0.0000000e+0 0.83146983
vn 0.55556990 0.0000000e+0 0.83146983
vn 0.55556990 0.0000000e+0 0.83146983
vn 0.0000000e+0 -1.00000000 0.0000000e+0
vn 0.19508938 0.0000000e+0 0.98078547
vn 0.19508938 0.0000000e+0 0.98078547
vn -1.00000000 0.0000000e+0 0.0000000e+0
vn 0.0000000e+0 -1.00000000 0.0000000e+0
vn 0.92387975 0.0000000e+0 -0.38268290
vn 0.92387975 0.0000000e+0 -0.38268290
vn 0.19508938 0.0000000e+0 0.98078547
vn 0.0000000e+0 1.00000000 5.8022937e-16
vn -0.70710678 0.0000000e+0 0.70710678
vn 0.83146983 0.0000000e+0 0.55556990
vn 0.83146983 0.0000000e+0 0.55556990
vn 0.83146983 0.0000000e+0 0.55556990
vn 0.55556990 0.0000000e+0 0.83146983
vn 0.55556990 0.0000000e+0 0.83146983
vn 0.0000000e+0 1.00000000 0.0000000e+0
vn 0.98078547 0.0000000e+0 0.19508938
vn 0.98078547 0.0000000e+0 0.19508938
vn 0.98078547 0.0000000e+0 0.19508938
vn -0.38268290 0.0000000e+0 0.92387975
vn 0.83146983 0.0000000e+0 0.55556990
vn 0.83146983 0.0000000e+0 0.55556990
g unnamed_object1_SpiralStairsR1m
usemtl SpiralStairsR1m
s 1
f 14/69/68 32/78/164 15/71/72
f 15/98/73 23/95/120 22/97/113
f 16/91/80 17/92/84 13/96/61
f 18/90/91 34/78/175 33/88/171
f 20/93/101 35/94/179 21/89/105
f 21/59/106 27/36/142 26/44/135
f 24/45/124 36/48/186 25/37/128
f 28/46/146 31/56/160 29/35/150
s 2
f 15/67/74 16/29/81 13/66/63
f 15/67/75 22/30/114 16/29/82
f 17/73/86 32/72/166 19/47/95
f 19/47/96 32/72/167 14/50/69
f 19/47/97 33/49/172 17/73/87
f 21/63/110 23/32/122 15/62/79
f 21/63/111 26/33/141 23/32/123
f 21/38/108 35/65/180 24/66/125
f 24/66/126 25/29/129 21/38/109
f 27/85/143 30/86/154 26/74/136
f 28/77/147 36/76/187 31/87/161
f 30/86/155 36/76/188 26/74/137
f 31/87/162 36/76/189 30/86/156
f 33/49/173 34/75/178 17/73/88
s 3
f 13/42/65 19/68/98 14/70/70
f 14/70/71 15/43/78 13/42/66
f 16/79/83 22/80/117 17/53/89
f 18/28/93 19/68/99 13/42/67
f 18/28/94 33/69/174 19/68/100
f 22/80/118 32/54/168 17/53/90
f 22/80/119 35/81/184 32/54/169
f 25/52/132 27/41/144 21/51/112
f 25/52/133 30/40/157 27/41/145
f 29/53/152 30/40/158 25/52/134
f 29/53/153 31/34/163 30/40/159
f 32/54/170 35/81/185 20/55/104
s 4
f 13/61/62 34/30/176 18/60/92
f 15/33/76 32/63/165 20/64/102
f 17/31/85 34/30/177 13/61/64
f 20/64/103 21/39/107 15/33/77
f 23/82/121 26/83/138 22/56/115
f 25/31/130 36/61/190 28/62/148
f 26/83/139 35/57/181 22/56/116
f 26/83/140 36/84/191 35/57/182
f 28/62/149 29/32/151 25/31/131
f 35/57/183 36/84/192 24/58/127
