mtllib SpiralStairsR1m.mtl

v 0.0000000e+0 0.0000000e+0 0.0000000e+0
v 7.6120000e-2 0.0000000e+0 0.38268300
v 0.29289300 0.0000000e+0 0.70710700
v 0.61731700 0.0000000e+0 0.92388000
v 1.00000000 0.0000000e+0 1.00000000
v 0.0000000e+0 2.00000000 0.0000000e+0
v 7.6120000e-2 2.00000000 0.38268300
v 0.29289300 2.00000000 0.70710700
v 0.61731700 2.00000000 0.92388000
v 1.00000000 2.00000000 1.00000000
v 0.0000000e+0 0.0000000e+0 1.00000000
v 0.0000000e+0 2.00000000 1.00000000
vt 0.0000000e+0 0.56168370
vt 1.6653345e-16 0.0000000e+0
vt 0.10747340 0.58306138
vt 0.19858524 0.64394031
vt 0.25946417 0.73505214
vt 0.28084185 0.0000000e+0
vt 0.28084185 1.1102230e-16
vt 0.28084185 0.56168370
vt 0.28084185 0.84252554
vt 0.30221953 0.73505214
vt 0.36309846 0.64394031
vt 0.45421029 0.58306138
vt 0.56168370 0.0000000e+0
vt 0.56168370 1.1102230e-16
vt 0.56168370 0.56168370
vt 0.67126260 1.1102230e-16
vt 0.67126260 0.56168370
vt 0.78084185 0.0000000e+0
vt 0.78084185 0.56168370
vt 0.89042109 0.0000000e+0
vt 0.89042109 0.56168370
vt 1.00000000 0.0000000e+0
vt 1.00000000 0.56168370
vn -1.00000000 0.0000000e+0 0.0000000e+0
vn -1.00000000 0.0000000e+0 0.0000000e+0
vn 0.98078547 0.0000000e+0 -0.19508938
vn 0.98078547 0.0000000e+0 -0.19508938
vn 0.0000000e+0 -1.00000000 0.0000000e+0
vn 0.89653777 0.0000000e+0 -0.44296731
vn 0.89653777 0.0000000e+0 -0.44296731
vn 0.89653777 0.0000000e+0 -0.44296731
vn 0.0000000e+0 -1.00000000 0.0000000e+0
vn 0.0000000e+0 -1.00000000 0.0000000e+0
vn 0.65877610 0.0000000e+0 -0.75233905
vn 0.65877610 0.0000000e+0 -0.75233905
vn 0.65877610 0.0000000e+0 -0.75233905
vn 0.0000000e+0 -1.00000000 0.0000000e+0
vn 0.0000000e+0 -1.00000000 0.0000000e+0
vn 0.32072146 0.0000000e+0 -0.94717355
vn 0.32072146 0.0000000e+0 -0.94717355
vn 0.32072146 0.0000000e+0 -0.94717355
vn 0.0000000e+0 -1.00000000 0.0000000e+0
vn 0.0000000e+0 -1.00000000 0.0000000e+0
vn 0.0000000e+0 0.0000000e+0 1.00000000
vn 0.0000000e+0 0.0000000e+0 1.00000000
vn 0.19508938 0.0000000e+0 -0.98078547
vn 0.0000000e+0 -1.00000000 0.0000000e+0
vn -1.00000000 0.0000000e+0 0.0000000e+0
vn 0.98078547 0.0000000e+0 -0.19508938
vn 0.0000000e+0 1.00000000 0.0000000e+0
vn 0.94717355 0.0000000e+0 -0.32072146
vn 0.94717355 0.0000000e+0 -0.32072146
vn 0.94717355 0.0000000e+0 -0.32072146
vn 0.0000000e+0 1.00000000 0.0000000e+0
vn 0.0000000e+0 1.00000000 0.0000000e+0
vn 0.75233905 0.0000000e+0 -0.65877610
vn 0.75233905 0.0000000e+0 -0.65877610
vn 0.75233905 0.0000000e+0 -0.65877610
vn 0.0000000e+0 1.00000000 0.0000000e+0
vn 0.0000000e+0 1.00000000 0.0000000e+0
vn 0.44296731 0.0000000e+0 -0.89653777
vn 0.44296731 0.0000000e+0 -0.89653777
vn 0.44296731 0.0000000e+0 -0.89653777
vn 0.0000000e+0 1.00000000 0.0000000e+0
vn 0.0000000e+0 1.00000000 0.0000000e+0
vn 0.0000000e+0 0.0000000e+0 1.00000000
vn 0.19508938 0.0000000e+0 -0.98078547
vn 0.19508938 0.0000000e+0 -0.98078547
vn 0.0000000e+0 1.00000000 0.0000000e+0
vn 0.0000000e+0 0.0000000e+0 1.00000000
vn -1.00000000 0.0000000e+0 0.0000000e+0
vn 0.0000000e+0 -1.00000000 0.0000000e+0
vn 0.0000000e+0 -1.00000000 0.0000000e+0
vn 0.0000000e+0 -1.00000000 0.0000000e+0
vn 0.0000000e+0 -1.00000000 0.0000000e+0
vn 0.0000000e+0 0.0000000e+0 1.00000000
vn 0.0000000e+0 0.0000000e+0 1.00000000
vn -1.00000000 0.0000000e+0 0.0000000e+0
vn -1.00000000 0.0000000e+0 0.0000000e+0
vn 0.0000000e+0 1.00000000 0.0000000e+0
vn 0.0000000e+0 1.00000000 0.0000000e+0
vn 0.0000000e+0 1.00000000 0.0000000e+0
vn 0.0000000e+0 1.00000000 0.0000000e+0
g unnamed_object2_SpiralStairsR1m
usemtl SpiralStairsR1m
s 1
f 1/2/1 12/8/55 6/1/25
f 11/7/48 12/8/56 1/2/2
s 2
f 2/5/9 11/8/49 1/9/5
f 3/4/14 11/8/50 2/5/10
f 4/3/19 11/8/51 3/4/15
f 5/1/24 11/8/52 4/3/20
f 6/9/27 12/8/57 7/10/31
f 7/10/32 12/8/58 8/11/36
f 8/11/37 12/8/59 9/12/41
f 9/12/42 12/8/60 10/15/46
s 3
f 5/14/21 12/8/53 11/6/47
f 10/15/43 12/8/54 5/14/22
s 4
f 1/22/3 7/21/28 2/20/6
f 2/20/7 8/19/33 3/18/11
f 3/18/12 9/17/38 4/16/16
f 4/16/17 10/15/44 5/13/23
f 6/23/26 7/21/29 1/22/4
f 7/21/30 8/19/34 2/20/8
f 8/19/35 9/17/39 3/18/13
f 9/17/40 10/15/45 4/16/18
o unnamed_object1
#18 vertices, 26 faces
v 1.00000000 0.0000000e+0 0.0000000e+0
v 0.0000000e+0 0.0000000e+0 0.0000000e+0
v 7.6120000e-2 0.0000000e+0 0.38268300
v 0.29289300 0.0000000e+0 0.70710700
v 0.61731700 0.0000000e+0 0.92388000
v 1.00000000 0.0000000e+0 1.00000000
v 1.00000000 0.83333300 0.0000000e+0
v 0.0000000e+0 0.83333300 0.0000000e+0
v 7.6120000e-2 0.83333300 0.38268300
v 1.00000000 1.00000000 0.0000000e+0
v 7.6120000e-2 1.00000000 0.38268300
v 0.29289300 1.00000000 0.70710700
v 1.00000000 1.16666700 0.0000000e+0
v 0.29289300 1.16666700 0.70710700
v 0.61731700 1.16666700 0.92388000
v 1.00000000 1.33333300 0.0000000e+0
v 0.61731700 1.33333300 0.92388000
v 1.00000000 1.33333300 1.00000000
vt 1.8281000e-2 0.98155100
vt 2.3394000e-2 0.26678000
vt 3.0454000e-2 0.36967700
vt 3.8403000e-2 0.88039400
vt 4.1987000e-2 0.41219700
vt 5.1478000e-2 4.8298000e-2
vt 8.7887000e-2 0.50456000
vt 9.5704000e-2 0.79463700
vt 0.11481300 0.53942900
vt 0.18146100 0.73733600
vt 0.19256500 0.60719600
vt 0.23078600 0.62910700
vt 0.28261800 0.71721500
vt 0.28261800 0.98155100
vt 0.28557300 0.30048100
vt 0.29710600 0.34300100
vt 0.30823200 0.71729900
vt 0.30823200 0.98163500
vt 0.31365700 8.1998000e-2
vt 0.32403200 0.37787100
vt 0.32855200 0.66196100
vt 0.36225300 0.39978200
vt 0.39311000 2.4487000e-2
vt 0.39311000 0.37693500
vt 0.39311000 0.41672600
vt 0.39311000 0.63700600
vt 0.41137100 0.71729900
vt 0.41137100 0.98163500
vt 0.49624900 2.4487000e-2
vt 0.49624900 0.37693500
vt 0.49624900 0.41672600
vt 0.49624900 0.63700600
vt 0.52178000 2.4487000e-2
vt 0.52178000 0.37693500
vt 0.78611600 2.4487000e-2
vt 0.78611600 0.37693500
vt 0.81164700 2.1426000e-2
vt 0.81164700 0.32981800
vt 0.91478600 2.1426000e-2
vt 0.91478600 0.32981800
vn 0.0000000e+0 0.0000000e+0 -1.00000000
vn 0.0000000e+0 0.0000000e+0 -1.00000000
vn 1.00000000 0.0000000e+0 0.0000000e+0
vn 0.0000000e+0 -1.00000000 0.0000000e+0
vn 0.0000000e+0 -1.00000000 0.0000000e+0
vn 0.0000000e+0 -1.00000000 0.0000000e+0
vn 0.0000000e+0 -1.00000000 0.0000000e+0
vn 0.0000000e+0 0.0000000e+0 -1.00000000
vn -0.98078547 0.0000000e+0 0.19508938
vn -0.98078547 0.0000000e+0 0.19508938
vn 0.0000000e+0 -1.00000000 0.0000000e+0
vn -0.98078547 0.0000000e+0 0.19508938
vn -0.83146983 0.0000000e+0 0.55556990
vn -0.83146983 0.0000000e+0 0.55556990
vn 0.0000000e+0 -1.00000000 0.0000000e+0
vn 0.0000000e+0 -1.00000000 0.0000000e+0
vn -0.55556990 0.0000000e+0 0.83146983
vn -0.55556990 0.0000000e+0 0.83146983
vn -0.83146983 0.0000000e+0 0.55556990
vn 0.0000000e+0 -1.00000000 0.0000000e+0
vn 0.0000000e+0 -1.00000000 0.0000000e+0
vn -0.55556990 0.0000000e+0 0.83146983
vn -0.19508938 0.0000000e+0 0.98078547
vn -0.19508938 0.0000000e+0 0.98078547
vn 0.0000000e+0 -1.00000000 0.0000000e+0
vn 0.0000000e+0 -1.00000000 0.0000000e+0
vn -0.19508938 0.0000000e+0 0.98078547
vn 1.00000000 0.0000000e+0 0.0000000e+0
vn 1.00000000 0.0000000e+0 0.0000000e+0
vn 0.0000000e+0 -1.00000000 0.0000000e+0
vn 0.0000000e+0 0.0000000e+0 -1.00000000
vn -0.38268290 0.0000000e+0 -0.92387975
vn -0.38268290 0.0000000e+0 -0.92387975
vn 0.0000000e+0 1.00000000 0.0000000e+0
vn 0.0000000e+0 0.0000000e+0 -1.00000000
vn 0.0000000e+0 0.0000000e+0 -1.00000000
vn -0.98078547 0.0000000e+0 0.19508938
vn 0.0000000e+0 1.00000000 0.0000000e+0
vn -0.38268290 0.0000000e+0 -0.92387975
vn -0.98078547 0.0000000e+0 0.19508938
vn -0.98078547 0.0000000e+0 0.19508938
vn 0.0000000e+0 1.00000000 0.0000000e+0
vn -0.38268290 0.0000000e+0 -0.92387975
vn -0.70710678 0.0000000e+0 -0.70710678
vn -0.70710678 0.0000000e+0 -0.70710678
vn 0.0000000e+0 1.00000000 5.8022937e-16
vn -0.38268290 0.0000000e+0 -0.92387975
vn -0.38268290 0.0000000e+0 -0.92387975
vn 0.0000000e+0 1.00000000 5.8022937e-16
vn -0.83146983 0.0000000e+0 0.55556990
vn -0.70710678 0.0000000e+0 -0.70710678
vn 0.0000000e+0 1.00000000 5.8022937e-16
vn -0.83146983 0.0000000e+0 0.55556990
vn -0.83146983 0.0000000e+0 0.55556990
vn -0.70710678 0.0000000e+0 -0.70710678
vn 0.0000000e+0 1.00000000 -5.8022937e-16
vn -0.92387975 0.0000000e+0 -0.38268290
vn -0.92387975 0.0000000e+0 -0.38268290
vn -0.55556990 0.0000000e+0 0.83146983
vn -0.70710678 0.0000000e+0 -0.70710678
vn -0.70710678 0.0000000e+0 -0.70710678
vn 0.0000000e+0 1.00000000 -5.8022937e-16
vn -0.55556990 0.0000000e+0 0.83146983
vn -0.55556990 0.0000000e+0 0.83146983
vn 0.0000000e+0 1.00000000 -5.8022937e-16
vn -0.92387975 0.0000000e+0 -0.38268290
vn 0.0000000e+0 1.00000000 0.0000000e+0
vn 1.00000000 0.0000000e+0 0.0000000e+0
vn 1.00000000 0.0000000e+0 0.0000000e+0
vn -0.92387975 0.0000000e+0 -0.38268290
vn 0.0000000e+0 1.00000000 0.0000000e+0
vn -0.19508938 0.0000000e+0 0.98078547
vn -0.92387975 0.0000000e+0 -0.38268290
vn -0.92387975 0.0000000e+0 -0.38268290
vn 0.0000000e+0 1.00000000 0.0000000e+0
vn -0.19508938 0.0000000e+0 0.98078547
vn -0.19508938 0.0000000e+0 0.98078547
vn 1.00000000 0.0000000e+0 0.0000000e+0
g unnamed_object1_SpiralStairsR1m
usemtl SpiralStairsR1m
s 1
f 13/37/64 15/27/75 14/24/71
f 13/37/65 16/31/80 15/27/76
f 13/37/66 17/33/85 16/31/81
f 13/37/67 18/36/90 17/33/86
f 20/25/98 21/26/102 19/38/94
f 23/28/109 24/30/112 22/39/106
f 26/32/122 27/34/125 25/43/116
f 29/35/131 30/44/135 28/45/127
s 2
f 13/42/61 20/25/95 19/38/91
f 13/56/63 28/57/128 18/58/88
f 14/29/68 20/25/96 13/42/62
f 14/54/69 21/49/100 20/55/97
f 15/48/72 21/49/101 14/54/70
f 15/50/73 24/41/113 23/51/110
f 16/40/79 24/41/114 15/50/74
f 16/62/77 27/61/123 26/63/119
f 17/60/82 27/61/124 16/62/78
f 17/52/83 30/47/136 29/53/132
f 18/46/87 30/47/137 17/52/84
f 19/38/92 23/28/107 22/39/103
f 21/26/99 23/28/108 19/38/93
f 22/39/104 26/32/120 25/43/115
f 24/30/111 26/32/121 22/39/105
f 25/43/117 29/35/133 28/45/130
f 27/34/126 29/35/134 25/43/118
f 28/57/129 30/59/138 18/58/89
