mtllib SpiralStairsR1m.mtl

v 1.00000000 0.0000000e+0 0.0000000e+0
v 0.61731700 0.0000000e+0 7.6120000e-2
v 0.29289300 0.0000000e+0 0.29289300
v 7.6120000e-2 0.0000000e+0 0.61731700
v 0.0000000e+0 0.0000000e+0 1.00000000
v 1.00000000 2.00000000 0.0000000e+0
v 0.61731700 2.00000000 7.6120000e-2
v 0.29289300 2.00000000 0.29289300
v 7.6120000e-2 2.00000000 0.61731700
v 0.0000000e+0 2.00000000 1.00000000
v 0.0000000e+0 0.0000000e+0 0.0000000e+0
v 0.0000000e+0 2.00000000 0.0000000e+0
vt 0.0000000e+0 4.4408921e-16
vt 0.0000000e+0 0.56168370
vt 0.0000000e+0 0.84252554
vt 0.10747340 0.82114786
vt 0.10957891 4.9960036e-16
vt 0.10957891 0.56168370
vt 0.19858524 0.76026893
vt 0.21915815 1.1102230e-16
vt 0.21915815 0.56168370
vt 0.25946417 0.66915710
vt 0.28084185 0.56168370
vt 0.28084185 0.84252554
vt 0.30221953 0.66915710
vt 0.32873740 0.0000000e+0
vt 0.32873740 0.56168370
vt 0.36309846 0.76026893
vt 0.43831630 0.0000000e+0
vt 0.43831630 2.2204460e-16
vt 0.43831630 0.56168370
vt 0.45421029 0.82114786
vt 0.56168370 0.84252554
vt 0.71915815 0.0000000e+0
vt 0.71915815 1.1102230e-16
vt 0.71915815 0.56168370
vt 1.00000000 1.1102230e-16
vt 1.00000000 0.56168370
vn 0.0000000e+0 0.0000000e+0 -1.00000000
vn 0.0000000e+0 0.0000000e+0 -1.00000000
vn 0.19508938 0.0000000e+0 0.98078547
vn 0.19508938 0.0000000e+0 0.98078547
vn 0.0000000e+0 -1.00000000 0.0000000e+0
vn 0.44296731 0.0000000e+0 0.89653777
vn 0.44296731 0.0000000e+0 0.89653777
vn 0.44296731 0.0000000e+0 0.89653777
vn 0.0000000e+0 -1.00000000 0.0000000e+0
vn 0.0000000e+0 -1.00000000 0.0000000e+0
vn 0.75233905 0.0000000e+0 0.65877610
vn 0.75233905 0.0000000e+0 0.65877610
vn 0.75233905 0.0000000e+0 0.65877610
vn 0.0000000e+0 -1.00000000 0.0000000e+0
vn 0.0000000e+0 -1.00000000 0.0000000e+0
vn 0.94717355 0.0000000e+0 0.32072146
vn 0.94717355 0.0000000e+0 0.32072146
vn 0.94717355 0.0000000e+0 0.32072146
vn 0.0000000e+0 -1.00000000 0.0000000e+0
vn 0.0000000e+0 -1.00000000 0.0000000e+0
vn -1.00000000 0.0000000e+0 0.0000000e+0
vn -1.00000000 0.0000000e+0 0.0000000e+0
vn 0.98078547 0.0000000e+0 0.19508938
vn 0.0000000e+0 -1.00000000 0.0000000e+0
vn 0.0000000e+0 0.0000000e+0 -1.00000000
vn 0.19508938 0.0000000e+0 0.98078547
vn 0.0000000e+0 1.00000000 0.0000000e+0
vn 0.32072146 0.0000000e+0 0.94717355
vn 0.32072146 0.0000000e+0 0.94717355
vn 0.32072146 0.0000000e+0 0.94717355
vn 0.0000000e+0 1.00000000 0.0000000e+0
vn 0.0000000e+0 1.00000000 0.0000000e+0
vn 0.65877610 0.0000000e+0 0.75233905
vn 0.65877610 0.0000000e+0 0.75233905
vn 0.65877610 0.0000000e+0 0.75233905
vn 0.0000000e+0 1.00000000 0.0000000e+0
vn 0.0000000e+0 1.00000000 0.0000000e+0
vn 0.89653777 0.0000000e+0 0.44296731
vn 0.89653777 0.0000000e+0 0.44296731
vn 0.89653777 0.0000000e+0 0.44296731
vn 0.0000000e+0 1.00000000 0.0000000e+0
vn 0.0000000e+0 1.00000000 0.0000000e+0
vn -1.00000000 0.0000000e+0 0.0000000e+0
vn 0.98078547 0.0000000e+0 0.19508938
vn 0.98078547 0.0000000e+0 0.19508938
vn 0.0000000e+0 1.00000000 0.0000000e+0
vn -1.00000000 0.0000000e+0 0.0000000e+0
vn 0.0000000e+0 0.0000000e+0 -1.00000000
vn 0.0000000e+0 -1.00000000 0.0000000e+0
vn 0.0000000e+0 -1.00000000 0.0000000e+0
vn 0.0000000e+0 -1.00000000 0.0000000e+0
vn 0.0000000e+0 -1.00000000 0.0000000e+0
vn -1.00000000 0.0000000e+0 0.0000000e+0
vn -1.00000000 0.0000000e+0 0.0000000e+0
vn 0.0000000e+0 0.0000000e+0 -1.00000000
vn 0.0000000e+0 0.0000000e+0 -1.00000000
vn 0.0000000e+0 1.00000000 0.0000000e+0
vn 0.0000000e+0 1.00000000 0.0000000e+0
vn 0.0000000e+0 1.00000000 0.0000000e+0
vn 0.0000000e+0 1.00000000 0.0000000e+0
g unnamed_object2_SpiralStairsR1m
usemtl SpiralStairsR1m
s 1
f 1/17/1 12/24/55 6/19/25
f 11/23/48 12/24/56 1/17/2
s 2
f 2/4/9 11/12/49 1/3/5
f 3/7/14 11/12/50 2/4/10
f 4/10/19 11/12/51 3/7/15
f 5/11/24 11/12/52 4/10/20
f 6/21/27 12/12/57 7/20/31
f 7/20/32 12/12/58 8/16/36
f 8/16/37 12/12/59 9/13/41
f 9/13/42 12/12/60 10/11/46
s 3
f 5/25/21 12/24/53 11/22/47
f 10/26/43 12/24/54 5/25/22
s 4
f 1/18/3 7/15/28 2/14/6
f 2/14/7 8/9/33 3/8/11
f 3/8/12 9/6/38 4/5/16
f 4/5/17 10/2/44 5/1/23
f 6/19/26 7/15/29 1/18/4
f 7/15/30 8/9/34 2/14/8
f 8/9/35 9/6/39 3/8/13
f 9/6/40 10/2/45 4/5/18
o unnamed_object1
#18 vertices, 26 faces
v 1.00000000 0.0000000e+0 1.00000000
v 1.00000000 0.0000000e+0 0.0000000e+0
v 0.61731700 0.0000000e+0 7.6120000e-2
v 0.29289300 0.0000000e+0 0.29289300
v 7.6120000e-2 0.0000000e+0 0.61731700
v 0.0000000e+0 0.0000000e+0 1.00000000
v 1.00000000 0.16666700 1.00000000
v 1.00000000 0.16666700 0.0000000e+0
v 0.61731700 0.16666700 7.6120000e-2
v 1.00000000 0.33333300 1.00000000
v 0.61731700 0.33333300 7.6120000e-2
v 0.29289300 0.33333300 0.29289300
v 1.00000000 0.50000000 1.00000000
v 0.29289300 0.50000000 0.29289300
v 7.6120000e-2 0.50000000 0.61731700
v 1.00000000 0.66666700 1.00000000
v 7.6120000e-2 0.66666700 0.61731700
v 0.0000000e+0 0.66666700 1.00000000
vt 7.4595000e-2 0.66145500
vt 7.4595000e-2 0.83374300
vt 0.10385100 0.24069800
vt 0.13380200 0.49738800
vt 0.14663200 0.23570600
vt 0.17658400 0.49239700
vt 0.18424700 0.21472300
vt 0.21096900 0.18094200
vt 0.22272900 0.13950600
vt 0.27253500 0.46139500
vt 0.31015000 0.44041200
vt 0.33302600 0.66145500
vt 0.33302600 0.83374300
vt 0.38693300 0.37505100
vt 0.41365500 0.34127000
vt 0.43672600 0.66145500
vt 0.43672600 0.83374300
vt 0.45958200 0.25150100
vt 0.47134100 0.21006500
vt 0.47941900 0.10955400
vt 0.53756100 0.66145500
vt 0.53756100 0.83374300
vt 0.59577200 0.62415800
vt 0.59577200 0.66723000
vt 0.62148400 0.44491800
vt 0.62148400 0.57413400
vt 0.66663400 7.4935000e-2
vt 0.68630500 0.17383200
vt 0.69660700 0.62415800
vt 0.69660700 0.66723000
vt 0.72232000 0.44491800
vt 0.72232000 0.57413400
vt 0.74232600 0.25767400
vt 0.78053000 0.43248600
vt 0.78053000 0.51863000
vt 0.82616800 0.31369500
vt 0.88136600 0.43248600
vt 0.88136600 0.51863000
vt 0.92506500 7.4935000e-2
vt 0.92506500 0.33336600
vn 0.0000000e+0 0.0000000e+0 1.00000000
vn 1.00000000 0.0000000e+0 0.0000000e+0
vn 1.00000000 0.0000000e+0 0.0000000e+0
vn 0.0000000e+0 -1.00000000 0.0000000e+0
vn 0.0000000e+0 -1.00000000 0.0000000e+0
vn 0.0000000e+0 -1.00000000 0.0000000e+0
vn 0.0000000e+0 -1.00000000 0.0000000e+0
vn -0.19508938 0.0000000e+0 -0.98078547
vn -0.19508938 0.0000000e+0 -0.98078547
vn 1.00000000 0.0000000e+0 0.0000000e+0
vn 0.0000000e+0 -1.00000000 0.0000000e+0
vn -0.19508938 0.0000000e+0 -0.98078547
vn -0.55556990 0.0000000e+0 -0.83146983
vn -0.55556990 0.0000000e+0 -0.83146983
vn 0.0000000e+0 -1.00000000 0.0000000e+0
vn 0.0000000e+0 -1.00000000 0.0000000e+0
vn -0.83146983 0.0000000e+0 -0.55556990
vn -0.83146983 0.0000000e+0 -0.55556990
vn -0.55556990 0.0000000e+0 -0.83146983
vn 0.0000000e+0 -1.00000000 0.0000000e+0
vn 0.0000000e+0 -1.00000000 0.0000000e+0
vn -0.83146983 0.0000000e+0 -0.55556990
vn -0.98078547 0.0000000e+0 -0.19508938
vn -0.98078547 0.0000000e+0 -0.19508938
vn 0.0000000e+0 -1.00000000 0.0000000e+0
vn 0.0000000e+0 -1.00000000 0.0000000e+0
vn -0.98078547 0.0000000e+0 -0.19508938
vn 0.0000000e+0 0.0000000e+0 1.00000000
vn 0.0000000e+0 0.0000000e+0 1.00000000
vn 0.0000000e+0 -1.00000000 0.0000000e+0
vn 0.0000000e+0 1.00000000 0.0000000e+0
vn 1.00000000 0.0000000e+0 0.0000000e+0
vn 0.92387975 0.0000000e+0 -0.38268290
vn 0.92387975 0.0000000e+0 -0.38268290
vn -0.19508938 0.0000000e+0 -0.98078547
vn 0.0000000e+0 1.00000000 0.0000000e+0
vn 1.00000000 0.0000000e+0 0.0000000e+0
vn 1.00000000 0.0000000e+0 0.0000000e+0
vn -0.19508938 0.0000000e+0 -0.98078547
vn -0.19508938 0.0000000e+0 -0.98078547
vn 0.0000000e+0 1.00000000 0.0000000e+0
vn 0.92387975 0.0000000e+0 -0.38268290
vn 0.0000000e+0 1.00000000 0.0000000e+0
vn 0.92387975 0.0000000e+0 -0.38268290
vn 0.70710678 0.0000000e+0 -0.70710678
vn 0.70710678 0.0000000e+0 -0.70710678
vn 0.0000000e+0 1.00000000 0.0000000e+0
vn -0.55556990 0.0000000e+0 -0.83146983
vn 0.92387975 0.0000000e+0 -0.38268290
vn 0.92387975 0.0000000e+0 -0.38268290
vn 0.0000000e+0 1.00000000 0.0000000e+0
vn -0.55556990 0.0000000e+0 -0.83146983
vn -0.55556990 0.0000000e+0 -0.83146983
vn 0.70710678 0.0000000e+0 -0.70710678
vn 0.0000000e+0 1.00000000 -2.9011469e-16
vn 0.70710678 0.0000000e+0 -0.70710678
vn 0.38268290 0.0000000e+0 -0.92387975
vn 0.38268290 0.0000000e+0 -0.92387975
vn -0.83146983 0.0000000e+0 -0.55556990
vn 0.0000000e+0 1.00000000 -2.9011469e-16
vn 0.70710678 0.0000000e+0 -0.70710678
vn 0.70710678 0.0000000e+0 -0.70710678
vn -0.83146983 0.0000000e+0 -0.55556990
vn -0.83146983 0.0000000e+0 -0.55556990
vn 0.0000000e+0 1.00000000 -2.9011469e-16
vn 0.38268290 0.0000000e+0 -0.92387975
vn 0.0000000e+0 1.00000000 5.8023117e-16
vn 0.0000000e+0 0.0000000e+0 1.00000000
vn 0.0000000e+0 0.0000000e+0 1.00000000
vn 0.38268290 0.0000000e+0 -0.92387975
vn 0.0000000e+0 1.00000000 5.8023117e-16
vn -0.98078547 0.0000000e+0 -0.19508938
vn 0.38268290 0.0000000e+0 -0.92387975
vn 0.38268290 0.0000000e+0 -0.92387975
vn 0.0000000e+0 1.00000000 5.8023117e-16
vn -0.98078547 0.0000000e+0 -0.19508938
vn -0.98078547 0.0000000e+0 -0.19508938
vn 0.0000000e+0 0.0000000e+0 1.00000000
g unnamed_object1_SpiralStairsR1m
usemtl SpiralStairsR1m
s 1
f 13/65/64 15/62/75 14/66/71
f 13/65/65 16/59/80 15/62/76
f 13/65/66 17/54/85 16/59/81
f 13/65/67 18/53/90 17/54/86
f 20/32/96 21/36/101 19/31/91
f 23/37/107 24/40/111 22/33/103
f 26/41/120 27/44/125 25/34/115
f 29/45/131 30/46/135 28/35/127
s 2
f 13/29/62 20/32/97 19/31/92
f 13/27/61 28/28/128 18/38/88
f 14/30/70 20/32/98 13/29/63
f 14/55/68 21/50/99 20/56/95
f 15/49/72 21/50/100 14/55/69
f 15/63/73 24/61/112 23/64/108
f 16/60/79 24/61/113 15/63/74
f 16/57/77 27/52/123 26/58/119
f 17/51/82 27/52/124 16/57/78
f 17/47/83 30/43/136 29/48/132
f 18/42/87 30/43/137 17/47/84
f 19/31/93 23/37/109 22/33/104
f 21/36/102 23/37/110 19/31/94
f 22/33/105 26/41/121 25/34/116
f 24/40/114 26/41/122 22/33/106
f 25/34/117 29/45/133 28/35/130
f 27/44/126 29/45/134 25/34/118
f 28/28/129 30/39/138 18/38/89
