v 0.00000000 1.83333333 1.00000000
v 0.00000000 2.00000000 1.00000000
v 1.00000033 1.83333333 1.00000000
v 1.00000033 2.00000000 1.00000000
v 0.92388000 1.83333333 0.617317
v 0.92388000 2.00000000 0.617317

vn -0.25208776 -0.65873909 0.70888262
vn -0.50417667 0.65873909 -0.55845205
vn 0.85858603 -0.43770332 0.26691914
vn 0.42929340 0.43770332 0.79001455
vn 9.4289242e-2 -0.43770310 -0.89416192
vn 0.69108363 0.43770310 -0.57516903

f 1//1 4//4 2//2
f 1//1 5//5 3//3
f 2//2 5//5 1//1
f 2//2 6//6 5//5
f 3//3 4//4 1//1
f 3//3 6//6 4//4
f 4//4 6//6 2//2
f 5//5 6//6 3//3
