v 1 0.000000 1
v 1 0.166666 1
v 1 0.333333 1
v 1 0.5 1
v 1 0.666666 1
v 1 0.000000 0
v 1 0.166666 0
v 0.617317 0.000000 0.07612
v 0.617317 0.166666 0.07612
v 0.617317 0.333333 0.07612
v 0.292893 0.000000 0.292893
v 0.292893 0.166666 0.292893
v 0.292893 0.333333 0.292893
v 0.292893 0.5 0.292893
v 0.07612 0.166666 0.617317
v 0.07612 0.333333 0.617317
v 0.07612 0.5 0.617317
v 0.07612 0.666666 0.617317
v 0 0.333333 1
v 0 0.5 1
v 0 0.666666 1

vn 0.3204 -0.5469 0.7735
vn 0.5556 -0.0000 0.8315
vn 0.8315 0.0000 0.5556
vn 0.9256 0.2123 0.3134
vn 0.8258 0.5395 0.1643
vn 0.5222 -0.5677 -0.6364
vn 0.5222 0.5677 -0.6364
vn -0.2856 -0.6657 -0.6894
vn -0.1205 0.2757 -0.9537
vn 0.2390 0.5677 -0.7878
vn -0.8193 -0.5677 -0.0807
vn -0.8350 -0.2757 -0.4763
vn -0.4763 0.2757 -0.8350
vn -0.0807 0.5677 -0.8193
vn -0.7878 -0.5677 0.2390
vn -0.9537 -0.2757 -0.1205
vn -0.7595 0.2757 -0.5891
vn -0.3881 0.5677 -0.7260
vn -0.6364 -0.5677 0.5222
vn -0.7730 0.0000 0.6344
vn -0.6364 0.5677 0.5222
f 1//1 7//7 2//2
f 1//1 8//8 6//6
f 1//1 11//11 8//8
f 2//2 10//10 3//3
f 2//2 11//11 1//1
f 2//2 12//12 11//11
f 2//2 15//15 12//12
f 3//3 14//14 4//4
f 3//3 15//15 2//2
f 3//3 16//16 15//15
f 3//3 19//19 16//16
f 4//4 18//18 5//5
f 4//4 19//19 3//3
f 4//4 20//20 19//19
f 5//5 20//20 4//4
f 5//5 21//21 20//20
f 6//6 7//7 1//1
f 6//6 9//9 7//7
f 7//7 9//9 2//2
f 8//8 9//9 6//6
f 8//8 12//12 9//9
f 9//9 10//10 2//2
f 9//9 13//13 10//10
f 10//10 13//13 3//3
f 11//11 12//12 8//8
f 12//12 13//13 9//9
f 12//12 16//16 13//13
f 13//13 14//14 3//3
f 13//13 17//17 14//14
f 14//14 17//17 4//4
f 15//15 16//16 12//12
f 16//16 17//17 13//13
f 16//16 20//20 17//17
f 17//17 18//18 4//4
f 17//17 21//21 18//18
f 18//18 21//21 5//5
f 19//19 20//20 16//16
f 20//20 21//21 17//17
