v -0.56593462 3.81821560 -0.33350534
v 0.57009692 3.81821560 -0.33350534
v -0.99791885 5.47588081 -0.15008074
v 1.00208115 5.47588081 -0.15008074
v -0.33125218 5.94481152 -0.33117957
v 0.33541449 5.94481152 -0.33117957
v -0.77569663 4.09022984 0.24622244
v 0.77985893 4.09022984 0.24622244
v -0.99791885 4.49096708 0.35352080
v 1.00208115 4.49096708 0.35352080
v 2.0811524e-3 6.39498368 4.0308890e-2
v -1.89117431 4.90189696 -0.18155884
v -1.72078132 4.90189696 0.22193377
v 1.89533662 4.90189696 -0.18155884
v 1.72494363 4.90189696 0.22193377
v -1.34132697 4.59531262 -0.21731772
v -1.33571604 4.57647370 0.25914901
v 1.34548927 4.59531262 -0.21731772
v 1.33987834 4.57647370 0.25914901
v 1.51480008 3.92701420 0.17573447
v 1.51480008 3.92701420 -0.18564715
v 2.02751901 3.92701420 -0.18564715
v 2.02751901 3.92701420 0.17573447
v -1.51063778 3.92701420 -0.18564715
v -1.51063778 3.92701420 0.17573447
v -2.02335671 3.92701420 0.17573447
v -2.02335671 3.92701420 -0.18564715
v 1.81226188 2.29983965 0.54076520
v -1.80809958 2.29983965 0.54076520
v 2.0811524e-3 4.86052415 -0.50705932
v 2.0811524e-3 4.70556607 0.46327781
v 2.0811524e-3 5.71990502 0.46871895
v -0.29672951 5.55617572 -0.17885694
v 0.30089182 5.55617572 -0.17885694
v 0.47808115 2.23612184 0.59908651
v -0.47391885 2.23612184 0.59908651
v 2.0811524e-3 3.44798370 -4.3641448e-2
v -0.70083048 2.05534260 0.15315338
v -0.26429541 2.39312658 9.3030258e-2
v 0.70499278 2.05534260 0.15315338
v 0.26845771 2.39312658 9.3030258e-2
v 0.74541788 1.7763568e-15 0.37759281
v -0.74125557 0.0000000e+0 0.37759281
v -0.14732418 5.24085735 0.14221044
v 0.15148649 5.24085735 0.14221044
vn -0.43345083 -0.37895430 -0.81762707
vn 0.43345083 -0.37895430 -0.81762707
vn -0.27797108 0.88717550 0.36830925
vn 0.27797108 0.88717550 0.36830925
vn -0.94138748 0.26713031 -0.20598788
vn 0.94138748 0.26713031 -0.20598788
vn -0.40309395 -0.45830849 0.79212916
vn 0.40309395 -0.45830849 0.79212916
vn -0.39753069 -0.25440386 0.88161671
vn 0.39753069 -0.25440386 0.88161671
vn 2.7932608e-16 0.99659564 8.2444673e-2
vn -0.67998679 0.34367930 -0.64769013
vn -0.41934412 0.44262434 0.79261226
vn 0.67998679 0.34367930 -0.64769013
vn 0.34833838 0.32358530 0.87974595
vn -7.0177389e-2 -0.58166504 -0.81039553
vn 0.18007250 -0.15016874 0.97212306
vn 7.0177389e-2 -0.58166504 -0.81039553
vn -0.22278591 -0.18162772 0.95779842
vn -0.67693009 -0.14578456 0.72146554
vn -0.52549223 -0.24009390 -0.81621862
vn 0.71207281 -0.14377367 -0.68722737
vn 0.76868203 0.11592740 0.62903797
vn 0.52549223 -0.24009390 -0.81621862
vn 0.82048237 -0.16620752 0.54697692
vn -0.66410316 7.5643611e-2 0.74380443
vn -0.71207281 -0.14377367 -0.68722737
vn 1.5217679e-2 -0.99212785 0.12430105
vn -1.5217679e-2 -0.99212785 0.12430105
vn 3.3012599e-17 6.7934624e-2 -0.99768977
vn -6.0484481e-17 0.19848997 0.98010292
vn 1.3454228e-16 1.2801906e-2 0.99991805
vn -0.88253201 0.46985443 -1.9340859e-2
vn 0.88253201 0.46985443 -1.9340859e-2
vn 0.18525380 -2.7029247e-2 0.98231891
vn -0.18525380 -2.7029247e-2 0.98231891
vn -2.6549977e-16 -0.91529406 0.40278628
vn -0.84207407 -6.4729268e-2 -0.53546370
vn 0.67964810 -0.28188449 -0.67721459
vn 0.84207407 -6.4729268e-2 -0.53546370
vn -0.67964810 -0.28188449 -0.67721459
vn 8.3197852e-2 -0.64393298 -0.76054483
vn -8.3197852e-2 -0.64393298 -0.76054483
vn -0.41403534 0.26600685 0.87052576
vn 0.41403534 0.26600685 0.87052576

f 1//1 2//2 37//37
f 1//1 16//16 30//30
f 1//1 36//36 7//7
f 1//1 39//39 38//38
f 2//2 18//18 8//8
f 2//2 35//35 40//40
f 2//2 41//41 37//37
f 3//3 9//9 31//31
f 3//3 33//33 30//30
f 3//3 44//44 33//33
f 4//4 18//18 30//30
f 4//4 45//45 31//31
f 5//5 6//6 30//30
f 5//5 11//11 6//6
f 5//5 32//32 11//11
f 5//5 44//44 32//32
f 6//6 34//34 30//30
f 6//6 45//45 34//34
f 7//7 8//8 31//31
f 7//7 16//16 1//1
f 7//7 31//31 9//9
f 7//7 36//36 37//37
f 8//8 18//18 10//10
f 8//8 35//35 2//2
f 8//8 37//37 35//35
f 9//9 3//3 17//17
f 9//9 16//16 7//7
f 10//10 18//18 19//19
f 10//10 31//31 8//8
f 11//11 32//32 6//6
f 12//12 3//3 16//16
f 12//12 26//26 13//13
f 13//13 3//3 12//12
f 13//13 26//26 17//17
f 14//14 4//4 15//15
f 14//14 21//21 18//18
f 15//15 4//4 19//19
f 15//15 23//23 14//14
f 16//16 24//24 12//12
f 17//17 3//3 13//13
f 17//17 16//16 9//9
f 17//17 25//25 16//16
f 18//18 4//4 14//14
f 18//18 20//20 19//19
f 19//19 4//4 10//10
f 19//19 20//20 15//15
f 20//20 18//18 21//21
f 20//20 28//28 23//23
f 21//21 14//14 22//22
f 21//21 28//28 20//20
f 22//22 14//14 23//23
f 22//22 28//28 21//21
f 23//23 15//15 20//20
f 23//23 28//28 22//22
f 24//24 16//16 25//25
f 24//24 29//29 27//27
f 25//25 17//17 26//26
f 25//25 29//29 24//24
f 26//26 12//12 27//27
f 26//26 29//29 25//25
f 27//27 12//12 24//24
f 27//27 29//29 26//26
f 30//30 2//2 1//1
f 30//30 16//16 3//3
f 30//30 18//18 2//2
f 30//30 33//33 5//5
f 30//30 34//34 4//4
f 31//31 10//10 4//4
f 31//31 44//44 3//3
f 31//31 45//45 44//44
f 32//32 45//45 6//6
f 33//33 44//44 5//5
f 34//34 45//45 4//4
f 35//35 42//42 40//40
f 36//36 43//43 39//39
f 37//37 8//8 7//7
f 37//37 36//36 39//39
f 37//37 39//39 1//1
f 38//38 36//36 1//1
f 38//38 43//43 36//36
f 39//39 43//43 38//38
f 40//40 41//41 2//2
f 40//40 42//42 41//41
f 41//41 35//35 37//37
f 41//41 42//42 35//35
f 45//45 32//32 44//44
